<svg width="90" height="90" viewBox="0 0 90 90" fill="none" xmlns="http://www.w3.org/2000/svg">
<g clip-path="url(#clip0_7_60)">
<path d="M71.3662 57.705C70.9413 57.7045 70.5205 57.6203 70.1281 57.4572C69.7356 57.2941 69.3791 57.0553 69.079 56.7545C68.7788 56.4536 68.5408 56.0966 68.3787 55.7037C68.2165 55.3109 68.1333 54.89 68.1337 54.465C68.1342 54.04 68.2184 53.6193 68.3815 53.2268C68.5446 52.8344 68.7834 52.4779 69.0843 52.1777C69.3851 51.8776 69.7422 51.6396 70.135 51.4774C70.5278 51.3152 70.9488 51.232 71.3737 51.2325C72.2321 51.2335 73.0548 51.5754 73.661 52.183C74.2672 52.7906 74.6072 53.6142 74.6062 54.4725C74.6052 55.3308 74.2633 56.1536 73.6557 56.7598C73.0481 57.366 72.2245 57.706 71.3662 57.705V57.705ZM71.3662 46.905C70.3742 46.9057 69.392 47.1019 68.4757 47.4822C67.5595 47.8625 66.7271 48.4196 66.0261 49.1216C65.3252 49.8236 64.7693 50.6568 64.3904 51.5736C64.0114 52.4905 63.8168 53.4729 63.8175 54.465C63.8182 55.4571 64.0144 56.4392 64.3947 57.3555C64.775 58.2718 65.3321 59.1041 66.0341 59.8051C66.7361 60.5061 67.5693 61.0619 68.4861 61.4409C69.403 61.8198 70.3854 62.0145 71.3775 62.0137C73.381 62.0118 75.3017 61.2139 76.717 59.7958C78.1324 58.3777 78.9264 56.4554 78.9244 54.4519C78.9224 52.4483 78.1246 50.5276 76.7064 49.1123C75.2883 47.697 73.366 46.903 71.3625 46.905H71.3662ZM18.3525 57.705C17.5211 57.665 16.7371 57.3065 16.1629 56.704C15.5886 56.1015 15.2683 55.3011 15.2683 54.4687C15.2683 53.6364 15.5886 52.836 16.1629 52.2335C16.7371 51.631 17.5211 51.2725 18.3525 51.2325C19.2108 51.2325 20.034 51.5735 20.6409 52.1804C21.2478 52.7873 21.5887 53.6104 21.5887 54.4687C21.5887 55.3271 21.2478 56.1502 20.6409 56.7571C20.034 57.364 19.2108 57.705 18.3525 57.705V57.705ZM18.3525 46.905C16.8587 46.905 15.3985 47.3479 14.1565 48.1778C12.9145 49.0077 11.9465 50.1872 11.3749 51.5673C10.8033 52.9473 10.6537 54.4659 10.9451 55.9309C11.2365 57.396 11.9558 58.7417 13.0121 59.7979C14.0683 60.8542 15.414 61.5735 16.8791 61.8649C18.3441 62.1563 19.8627 62.0067 21.2427 61.4351C22.6227 60.8635 23.8023 59.8954 24.6322 58.6534C25.462 57.4114 25.905 55.9512 25.905 54.4575V54.4537C25.905 52.4507 25.1093 50.5297 23.6929 49.1133C22.2765 47.697 20.3555 46.9012 18.3525 46.9012H18.345L18.3525 46.905Z" fill="#1663F9"/>
<path d="M43.1513 36.4762L42.615 26.5762H50.8725L62.2088 36.4762H43.1513ZM39.9488 36.4762H26.9663L31.4925 26.5762H39.945L39.9488 36.4762ZM22.3425 36.4762H18.3525L25.905 26.5762H28.305L22.3425 36.4762ZM87.8175 44.5762L87.1425 42.4087C86.7957 41.3081 86.1537 40.3236 85.2861 39.5625C84.4186 38.8015 83.359 38.293 82.2225 38.0925L82.185 38.0887L66.2025 35.4262L54.5475 25.5037C53.4027 24.5237 51.9446 23.9862 50.4375 23.9887H27.0225C24.8288 23.9887 22.8863 25.0687 21.6975 26.7225L21.6825 26.7412L14.73 36.5175L7.40251 37.2675C6.4161 37.3717 5.48599 37.7781 4.73952 38.4313C3.99304 39.0845 3.46669 39.9524 3.23251 40.9162L3.22501 40.95L2.13001 45.6712H2.11876C1.78627 45.6706 1.45841 45.7491 1.16234 45.9004C0.866266 46.0517 0.61051 46.2714 0.416261 46.5412L0.412511 46.5487C0.210995 46.8207 0.078716 47.1376 0.0271012 47.4721C-0.0245137 47.8067 0.00608729 48.1487 0.116261 48.4687L0.112511 48.4537L0.787511 50.475C1.17658 51.6335 1.91915 52.6409 2.91071 53.3553C3.90227 54.0697 5.09289 54.4552 6.31501 54.4575H8.39251C8.36682 53.1335 8.6054 51.8177 9.0943 50.587C9.5832 49.3564 10.3126 48.2355 11.2399 47.2901C12.1671 46.3447 13.2736 45.5937 14.4945 45.081C15.7155 44.5683 17.0264 44.3042 18.3506 44.3042C19.6749 44.3042 20.9858 44.5683 22.2068 45.081C23.4277 45.5937 24.5342 46.3447 25.4614 47.2901C26.3887 48.2355 27.1181 49.3564 27.607 50.587C28.0959 51.8177 28.3345 53.1335 28.3088 54.4575H61.4063C61.4063 51.8159 62.4556 49.2826 64.3235 47.4147C66.1913 45.5469 68.7247 44.4975 71.3663 44.4975H71.37C74.0116 44.4975 76.5449 45.5469 78.4128 47.4147C80.2807 49.2826 81.33 51.8159 81.33 54.4575H83.0475C85.9313 54.4575 88.3688 52.5487 89.1638 49.9237L89.175 49.8787L89.9175 47.3812C90.0133 47.0544 90.0317 46.7097 89.9711 46.3745C89.9106 46.0392 89.7728 45.7227 89.5688 45.45L89.5725 45.4537C89.3683 45.182 89.1039 44.9613 88.8001 44.8091C88.4962 44.6568 88.1611 44.5771 87.8213 44.5762H87.8175Z" fill="#1663F9"/>
</g>
<defs>
<clipPath id="clip0_7_60">
<rect width="90" height="90" fill="white"/>
</clipPath>
</defs>
</svg>
